<?xml version="1.0" standalone="no"?>
<!DOCTYPE svg PUBLIC "-//W3C//DTD SVG 20010904//EN"
 "http://www.w3.org/TR/2001/REC-SVG-20010904/DTD/svg10.dtd">
<svg version="1.0" xmlns="http://www.w3.org/2000/svg"
 width="300.000000pt" height="72.000000pt" viewBox="0 0 300.000000 72.000000"
 preserveAspectRatio="xMidYMid meet">
<metadata>
Created by potrace 1.10, written by Peter Selinger 2001-2011
</metadata>
<g transform="translate(0.000000,72.000000) scale(0.100000,-0.100000)"
fill="#ff0000" stroke="none">
<path d="M290 462 c0 -7 -7 -12 -15 -12 -8 0 -15 -4 -15 -10 0 -5 -3 -9 -8 -7
-4 1 -20 -8 -35 -20 -26 -20 -28 -26 -25 -84 l3 -62 49 -30 c41 -26 52 -28 68
-18 11 7 37 21 59 33 36 19 49 40 31 52 -4 2 -30 -9 -57 -26 l-49 -30 -43 21
c-41 20 -43 23 -43 66 0 25 -1 48 -1 52 -1 7 61 44 93 56 10 4 11 7 1 18 -10
9 -13 10 -13 1z"/>
<path d="M1865 458 c3 -8 -3 -55 -14 -104 -10 -49 -18 -90 -17 -91 1 -1 7 2
14 6 14 8 56 180 47 189 -3 3 -5 2 -5 -3 0 -4 -7 -2 -15 5 -13 11 -14 10 -10
-2z"/>
<path d="M864 452 c-12 -7 -48 -165 -42 -182 2 -5 8 -6 15 -2 12 7 18 30 29
107 4 22 10 50 15 63 9 22 3 27 -17 14z"/>
<path d="M1267 454 c-9 -10 2 -24 19 -24 8 0 14 7 14 15 0 15 -21 21 -33 9z"/>
<path d="M1516 445 c-4 -10 1 -15 14 -15 11 0 20 7 20 15 0 8 -6 15 -14 15 -8
0 -16 -7 -20 -15z"/>
<path d="M2510 445 c0 -10 7 -15 18 -13 21 4 19 22 -2 26 -10 2 -16 -3 -16
-13z"/>
<path d="M1972 443 c-27 -5 -55 -44 -46 -66 3 -8 23 -23 45 -31 21 -9 39 -23
39 -31 0 -20 -46 -30 -75 -17 -17 8 -26 8 -31 1 -10 -17 16 -29 61 -29 46 0
57 6 73 37 15 27 -1 46 -53 63 -19 6 -35 15 -35 20 0 19 32 32 64 27 25 -4 36
-1 40 9 3 9 -1 14 -13 14 -11 0 -25 2 -33 4 -7 2 -23 1 -36 -1z"/>
<path d="M273 406 c-48 -29 -53 -34 -53 -68 0 -36 1 -37 28 -32 16 3 35 -1 46
-9 17 -13 23 -12 53 5 18 11 34 29 34 39 1 10 2 25 3 32 1 13 -43 41 -52 32
-3 -3 5 -14 17 -24 l23 -20 -22 -31 c-12 -17 -27 -29 -34 -25 -6 3 -19 8 -28
11 -25 9 -23 20 13 65 17 21 29 43 27 47 -1 5 -27 -5 -55 -22z m11 -31 c-4 -8
-10 -15 -15 -15 -5 0 -9 -7 -9 -15 0 -8 -4 -15 -10 -15 -18 0 -10 27 13 43 28
20 28 20 21 2z"/>
<path d="M521 378 c-6 -35 -14 -75 -17 -89 -4 -19 -2 -26 10 -26 10 0 17 14
21 40 l7 39 44 -5 c31 -3 44 -1 48 9 4 11 -6 14 -39 14 -46 0 -53 8 -39 44 4
12 20 16 55 16 27 0 49 5 49 10 0 6 -28 10 -63 10 l-64 0 -12 -62z"/>
<path d="M1051 378 c-6 -35 -14 -74 -17 -88 l-5 -26 63 7 c79 7 95 14 113 50
21 39 19 71 -5 97 -17 18 -32 22 -79 22 l-58 0 -12 -62z m121 25 c20 -18 23
-45 8 -73 -17 -33 -129 -57 -117 -26 3 8 9 32 12 53 4 21 8 44 10 51 6 18 65
15 87 -5z"/>
<path d="M1590 415 c0 -8 -7 -15 -15 -15 -8 0 -15 -4 -15 -10 0 -5 6 -10 14
-10 11 0 12 -8 4 -40 -6 -22 -8 -46 -4 -55 6 -17 66 -21 66 -5 0 6 -9 10 -20
10 -21 0 -24 9 -14 59 4 21 12 31 25 31 10 0 21 5 24 10 3 6 -5 10 -19 10 -18
0 -24 4 -20 15 4 9 0 15 -10 15 -9 0 -16 -7 -16 -15z"/>
<path d="M702 395 c-46 -20 -60 -85 -24 -112 61 -48 163 49 105 99 -28 24 -47
27 -81 13z m58 -30 c31 -38 -27 -96 -65 -65 -19 16 -19 30 1 58 18 25 46 29
64 7z"/>
<path d="M1359 398 c-27 -9 -49 -44 -49 -77 0 -28 39 -49 74 -40 37 10 39 8
20 -19 -16 -24 -44 -28 -74 -12 -13 7 -19 6 -23 -4 -7 -17 13 -26 58 -26 36 0
75 31 75 60 0 8 6 39 14 68 11 44 11 52 0 52 -8 0 -14 -5 -14 -11 0 -8 -4 -8
-12 -2 -22 17 -42 20 -69 11z m60 -36 c15 -28 -13 -64 -47 -60 -20 2 -28 10
-30 27 -7 44 57 70 77 33z"/>
<path d="M1714 400 c-27 -11 -54 -48 -54 -76 0 -35 31 -54 82 -52 43 2 47 4
52 33 3 16 6 32 5 35 0 3 4 17 10 33 9 22 8 27 -4 27 -8 0 -15 -5 -15 -10 0
-6 -11 -5 -27 4 -18 8 -36 11 -49 6z m59 -41 c13 -21 -15 -69 -41 -69 -40 0
-55 45 -26 75 20 19 53 16 67 -6z"/>
<path d="M2113 395 c-70 -29 -54 -125 20 -125 40 0 59 11 48 29 -6 9 -11 10
-15 2 -12 -19 -54 -13 -66 10 -11 20 -9 20 47 18 56 -3 58 -2 55 22 -7 48 -40
64 -89 44z m55 -27 c19 -19 14 -23 -28 -23 -22 0 -40 2 -40 5 0 12 24 30 40
30 9 0 21 -5 28 -12z"/>
<path d="M2293 395 c-16 -11 -22 -12 -26 -2 -2 6 -8 9 -12 5 -8 -7 -36 -131
-30 -136 7 -7 35 31 35 49 0 29 18 59 35 59 8 0 19 9 25 20 13 24 3 26 -27 5z"/>
<path d="M2613 402 c-26 -4 -63 -46 -63 -71 0 -9 7 -27 16 -39 18 -25 69 -30
99 -9 25 19 3 32 -25 15 -41 -26 -78 26 -44 63 19 21 44 25 61 8 16 -16 37 -1
23 16 -13 16 -37 22 -67 17z"/>
<path d="M2751 398 c-48 -18 -68 -80 -35 -112 16 -16 59 -21 88 -10 28 11 7
23 -28 17 -28 -4 -36 -1 -46 17 -12 22 -11 22 44 18 55 -3 56 -2 56 23 0 41
-37 63 -79 47z m57 -38 c2 -12 -7 -16 -38 -16 -42 -1 -48 4 -28 24 17 17 62
11 66 -8z"/>
<path d="M907 393 c-15 -14 -5 -19 31 -15 l37 4 -47 -49 c-27 -27 -48 -52 -48
-56 0 -4 27 -7 60 -7 33 0 60 4 60 10 0 6 -16 10 -35 10 -19 0 -35 4 -35 9 0
4 20 25 45 47 25 21 45 42 45 46 0 10 -104 11 -113 1z"/>
<path d="M1250 343 c-7 -32 -14 -61 -17 -65 -2 -5 5 -8 15 -8 16 0 21 10 26
50 4 28 9 57 12 65 4 9 0 15 -9 15 -11 0 -19 -18 -27 -57z"/>
<path d="M1500 343 c-7 -32 -15 -62 -17 -66 -3 -5 3 -7 13 -5 12 2 21 16 26
43 4 22 10 50 13 63 4 15 1 22 -9 22 -10 0 -19 -19 -26 -57z"/>
<path d="M2344 373 c21 -84 28 -103 40 -103 8 0 30 24 48 53 51 76 51 77 34
77 -9 0 -28 -22 -44 -50 -15 -27 -30 -50 -34 -50 -3 0 -9 23 -13 50 -5 35 -11
50 -22 50 -11 0 -14 -7 -9 -27z"/>
<path d="M2497 355 c-4 -25 -9 -56 -13 -70 -5 -19 -3 -24 8 -20 8 3 21 35 30
70 14 61 14 65 -2 65 -13 0 -19 -11 -23 -45z"/>
</g>
</svg>
