<!--?xml version="1.0" standalone="no"?-->
              <svg id="sw-js-blob-svg" viewBox="0 0 100 100" xmlns="http://www.w3.org/2000/svg" version="1.1">
                    <defs> 
                        <linearGradient id="sw-gradient" x1="0" x2="1" y1="1" y2="0">
                            <stop id="stop1" stop-color="rgba(248, 117, 55, 1)" offset="0%"></stop>
                            <stop id="stop2" stop-color="rgba(251, 168, 31, 1)" offset="100%"></stop>
                        </linearGradient>
                    </defs>
                <path fill="url(#sw-gradient)" d="M24,-27.4C30.6,-23.1,35.1,-15,34.3,-7.8C33.4,-0.6,27.2,5.7,23.2,14C19.2,22.3,17.4,32.6,11.8,36.2C6.3,39.9,-3.1,37,-9.4,32C-15.7,27,-19,19.9,-25,12.8C-31.1,5.7,-39.8,-1.4,-39.5,-7.7C-39.3,-13.9,-29.9,-19.2,-21.8,-23.2C-13.7,-27.2,-6.9,-29.8,0.9,-30.9C8.7,-32,17.4,-31.6,24,-27.4Z" width="100%" height="100%" transform="translate(50 50)" stroke-width="0" style="transition: all 0.3s ease 0s;"></path>
              </svg>