<!--?xml version="1.0" standalone="no"?-->
              <svg id="sw-js-blob-svg" viewBox="0 0 100 100" xmlns="http://www.w3.org/2000/svg" version="1.1">
                    <defs> 
                        <linearGradient id="sw-gradient" x1="0" x2="1" y1="1" y2="0">
                            <stop id="stop1" stop-color="rgba(248, 117, 55, 1)" offset="0%"></stop>
                            <stop id="stop2" stop-color="rgba(31, 69.137, 251, 1)" offset="100%"></stop>
                        </linearGradient>
                    </defs>
                <path fill="url(#sw-gradient)" d="M16,-26.8C20.3,-25.3,22.9,-20,27,-14.9C31.2,-9.8,36.7,-4.9,38.8,1.2C40.8,7.3,39.3,14.6,35.4,20C31.5,25.4,25.1,29,18.8,28.5C12.5,28,6.3,23.5,-0.5,24.3C-7.2,25.1,-14.4,31.2,-19.2,30.9C-24.1,30.5,-26.6,23.7,-27.1,17.5C-27.6,11.2,-26,5.6,-28.3,-1.3C-30.7,-8.3,-36.8,-16.6,-36,-22.2C-35.1,-27.8,-27.3,-30.7,-20.1,-30.5C-12.9,-30.4,-6.5,-27.1,-0.3,-26.6C5.9,-26.1,11.8,-28.3,16,-26.8Z" width="100%" height="100%" transform="translate(50 50)" stroke-width="0" style="transition: all 0.3s ease 0s;" stroke="url(#sw-gradient)"></path>
              </svg>